<?xml version="1.0" encoding="utf-8"?>
<!DOCTYPE svg PUBLIC "-//W3C//DTD SVG 1.1//EN" "http://www.w3.org/Graphics/SVG/1.1/DTD/svg11.dtd">
<svg style="width:308px;height:308px;" version="1.1" id="图形" xmlns="http://www.w3.org/2000/svg" xmlns:xlink="http://www.w3.org/1999/xlink" x="0px" y="0px" width="1024px" height="1024px" viewBox="0 0 1024 1024" enable-background="new 0 0 1024 1024" xml:space="preserve">
  <path class="svgpath" data-index="path_0" fill="#eb4f38" d="M511.845481 579.63747c-60.191894 0-116.78175-23.439852-159.343101-66.002226-42.562375-42.562375-66.002226-99.151207-66.002226-159.343101s23.439852-116.780727 66.002226-159.343101c42.561351-42.562375 99.151207-66.002226 159.343101-66.002226 60.190871 0 116.780727 23.439852 159.342078 66.002226 42.562375 42.562375 66.002226 99.151207 66.002226 159.343101s-23.439852 116.780727-66.002226 159.343101C628.627231 556.197618 572.037375 579.63747 511.845481 579.63747zM511.845481 176.019922c-98.30084 0-178.273243 79.972403-178.273243 178.273243 0 98.299817 79.972403 178.272219 178.273243 178.272219 98.299817 0 178.272219-79.972403 178.272219-178.272219C690.1177 255.992325 610.145297 176.019922 511.845481 176.019922z" />
<path class="svgpath" data-index="path_1" fill="#eb4f38" d="M855.697853 876.993878l-47.072085 0c0-78.93477-30.739095-153.143912-86.553285-208.959126-55.815213-55.81419-130.024355-86.553285-208.959126-86.553285-78.933747 0-153.143912 30.739095-208.959126 86.553285-55.81419 55.815213-86.553285 130.024355-86.553285 208.959126l-47.072085 0c0-46.239114 9.060353-91.105974 26.931373-133.35624 17.256012-40.797172 41.954531-77.432557 73.408917-108.886943s68.089771-56.152904 108.886943-73.408917c42.25129-17.871019 87.11815-26.931373 133.35624-26.931373 46.239114 0 91.105974 9.060353 133.35624 26.931373 40.797172 17.256012 77.432557 41.954531 108.886943 73.408917s56.152904 68.089771 73.408917 108.886943C846.636476 785.887904 855.697853 830.754764 855.697853 876.993878z" />

</svg>
